<?xml version="1.0" encoding="UTF-8" standalone="no"?>
<!-- Created with Inkscape (http://www.inkscape.org/) -->

<svg
   width="14.458786mm"
   height="14.458784mm"
   viewBox="0 0 14.458786 14.458784"
   version="1.1"
   id="svg5"
   inkscape:version="1.2.1 (9c6d41e410, 2022-07-14)"
   sodipodi:docname="inseton_logo.svg"
   inkscape:export-filename="inseton_logo.pdf"
   inkscape:export-xdpi="96"
   inkscape:export-ydpi="96"
   xml:space="preserve"
   xmlns:inkscape="http://www.inkscape.org/namespaces/inkscape"
   xmlns:sodipodi="http://sodipodi.sourceforge.net/DTD/sodipodi-0.dtd"
   xmlns="http://www.w3.org/2000/svg"
   xmlns:svg="http://www.w3.org/2000/svg"><sodipodi:namedview
     id="namedview7"
     pagecolor="#ffffff"
     bordercolor="#ceff1c"
     borderopacity="0.25"
     inkscape:showpageshadow="2"
     inkscape:pageopacity="0.0"
     inkscape:pagecheckerboard="0"
     inkscape:deskcolor="#d1d1d1"
     inkscape:document-units="mm"
     showgrid="false"
     inkscape:zoom="3.0182098"
     inkscape:cx="621.89183"
     inkscape:cy="278.97332"
     inkscape:window-width="1920"
     inkscape:window-height="1027"
     inkscape:window-x="-8"
     inkscape:window-y="-8"
     inkscape:window-maximized="1"
     inkscape:current-layer="layer1" /><defs
     id="defs2" /><g
     inkscape:label="Camada 1"
     inkscape:groupmode="layer"
     id="layer1"
     transform="translate(-97.97597,-28.135675)"><path
       id="path6301-5"
       style="fill:none;stroke:#ceff1c;stroke-width:0.990591;stroke-linecap:round;stroke-linejoin:round;stroke-dasharray:none;stroke-opacity:1"
       d="m 109.48402,40.045435 a 5.2252872,5.2967877 0 0 0 -4.23533,-2.194583 5.2252872,5.2967877 0 0 0 -4.23533,2.194583 m 9.33636,-8.589431 a 6.2310934,5.1205937 0 0 1 -5.05059,2.121583 6.2310934,5.1205937 0 0 1 -5.05057,-2.121583 m 7.20028,-2.219381 a 2.2049943,1.9616423 0 0 1 2.4e-4,0.03461 v 0 a 2.2049943,1.9616423 0 0 1 -2.20495,1.961645 2.2049943,1.9616423 0 0 1 -2.20466,-1.927078 m -3.961156,6.48389 h 12.387696 v 0.05043 H 99.078314 Z m 9.212246,0.05319 a 3.0188958,4.4751159 0 0 1 -3.0189,4.475116 3.0188958,4.4751159 0 0 1 -3.01889,-4.475116 3.0188958,4.4751159 0 0 1 3.01889,-4.475116 3.0188958,4.4751159 0 0 1 3.0189,4.475116 z m 3.6489,-0.477811 a 6.7340959,6.7340959 0 0 1 -6.7341,6.734094 6.7340959,6.7340959 0 0 1 -6.734095,-6.734094 6.7340959,6.7340959 0 0 1 6.734095,-6.734097 6.7340959,6.7340959 0 0 1 6.7341,6.734097 z" /></g></svg>
